<mxfile host="app.diagrams.net" modified="2024-06-24T13:20:37.188Z" agent="Mozilla/5.0 (Windows NT 10.0; Win64; x64) AppleWebKit/537.36 (KHTML, like Gecko) Chrome/126.0.0.0 Safari/537.36" version="24.5.4" etag="Vl3Vz4ibqPSU_1v73Pse" type="github">
  <diagram name="Page-1" id="icPbI95F8k4_diE7FyV2">
    <mxGraphModel>
      <root>
        <mxCell id="0" />
        <mxCell id="1" parent="0" />
      </root>
    </mxGraphModel>
  </diagram>
</mxfile>
